<?xml version="1.0" encoding="utf-8"?>
<!-- Generator: Adobe Illustrator 17.0.0, SVG Export Plug-In . SVG Version: 6.00 Build 0)  -->
<!DOCTYPE svg PUBLIC "-//W3C//DTD SVG 1.1//EN" "http://www.w3.org/Graphics/SVG/1.1/DTD/svg11.dtd">
<svg version="1.1" id="Layer_1" xmlns="http://www.w3.org/2000/svg" xmlns:xlink="http://www.w3.org/1999/xlink" x="0px" y="0px"
	 width="21.635px" height="20.565px" viewBox="9 5.537 21.635 20.565" enable-background="new 9 5.537 21.635 20.565"
	 xml:space="preserve">
<text transform="matrix(1 0 0 1 45.4467 5.5373)" font-family="'ArialMT'" font-size="6.72">Created By CBi China Bridge </text>
<text transform="matrix(1 0 0 1 45.4467 13.6012)" font-family="'ArialMT'" font-size="6.72">from the Noun Project</text>
<text transform="matrix(1 0 0 1 10.0446 68.9922)" font-family="'ArialMT'" font-size="3.84">Bake / cook</text>
<g>
	<path stroke="#231F20" stroke-width="2" stroke-linecap="round" stroke-linejoin="round" stroke-miterlimit="10" d="M29.289,44.947
		c-4.028-4.027-7.364,1.253-9.008,5.238c-0.168,0.409-0.327,0.785-0.475,1.131"/>
	<path stroke="#231F20" stroke-width="2" stroke-linecap="round" stroke-linejoin="round" stroke-miterlimit="10" d="M20.371,51.836
		c0.167-0.284,0.334-0.575,0.496-0.867c1.208-2.179,4.384-8.268,8.308-6.137"/>
	<path stroke="#231F20" stroke-width="2" stroke-linecap="round" stroke-linejoin="round" stroke-miterlimit="10" d="M20.855,52.318
		c0.323-0.411,0.621-0.796,0.853-1.105c1.024-1.367,5.822-7.079,7.352-6.495"/>
	<path stroke="#231F20" stroke-width="2" stroke-linecap="round" stroke-linejoin="round" stroke-miterlimit="10" d="M16.684,55.641
		c-0.469,0.404-5.095,4.723-5.095,4.723s-1.457,1.282-0.452,2.287"/>
	<path stroke="#231F20" stroke-width="2" stroke-linecap="round" stroke-linejoin="round" stroke-miterlimit="10" d="M11.17,62.683
		c1.005,1.004,2.286-0.452,2.286-0.452s4.32-4.626,4.724-5.094"/>
	<path stroke="#231F20" stroke-width="2" stroke-linecap="round" stroke-linejoin="round" stroke-miterlimit="10" d="M28.873,44.532
		c4.028,4.027-1.252,7.364-5.237,9.007c-0.406,0.167-0.78,0.325-1.125,0.473c-0.026,0.011-0.052,0.022-0.078,0.033"/>
	<path stroke="#231F20" stroke-width="2" stroke-linecap="round" stroke-linejoin="round" stroke-miterlimit="10" d="M21.966,53.46
		c0.29-0.171,0.587-0.341,0.885-0.506c2.18-1.208,8.268-4.384,6.137-8.308"/>
	<path stroke="#231F20" stroke-width="2" stroke-linecap="round" stroke-linejoin="round" stroke-miterlimit="10" d="M21.484,52.98
		c0.418-0.329,0.81-0.633,1.124-0.869c1.367-1.024,7.079-5.822,6.495-7.352"/>
	<g>
		<path stroke="#231F20" stroke-width="2" stroke-linecap="round" stroke-linejoin="round" stroke-miterlimit="10" d="
			M26.007,59.233l-2.001,2.001c-0.442,0.443-1.169,0.443-1.612,0L11.524,50.365c-0.443-0.443-0.443-1.17,0-1.612l2.001-2.001
			c0.445-0.443,1.169-0.443,1.615,0l4.635,4.636l0.542,0.542l0.295,0.295c0.059,0.059,0.118,0.118,0.177,0.177
			c0.236,0.236,0.461,0.464,0.628,0.631c0.11,0.107,0.193,0.193,0.238,0.236c0.043,0.043,0.126,0.126,0.236,0.236
			c0.145,0.148,0.338,0.34,0.542,0.542c0.086,0.089,0.178,0.177,0.266,0.266l3.308,3.308C26.449,58.063,26.449,58.788,26.007,59.233
			z"/>
	</g>
	<path stroke="#231F20" stroke-width="2" stroke-linecap="round" stroke-linejoin="round" stroke-miterlimit="10" d="M25.778,59.461
		l1.773,1.772c0.401,0.428,0.393,1.099-0.026,1.517c-0.426,0.426-1.118,0.425-1.545-0.001l-1.746-1.746L25.778,59.461z"/>
	<path stroke="#231F20" stroke-width="2" stroke-linecap="round" stroke-linejoin="round" stroke-miterlimit="10" d="M11.754,48.524
		l-1.773-1.773c-0.401-0.428-0.393-1.099,0.025-1.518c0.426-0.426,1.118-0.425,1.545,0.002l1.746,1.746L11.754,48.524z"/>
	
		<line fill="none" stroke="#231F20" stroke-width="2" stroke-linecap="round" stroke-linejoin="round" stroke-miterlimit="10" x1="12.747" y1="49.923" x2="22.736" y2="59.913"/>
</g>
<g>
	<path fill="#FFFFFF" d="M29.515,7.433c-0.029-0.029-0.058-0.052-0.086-0.08c-0.015-0.02-0.036-0.034-0.055-0.051
		c-0.006-0.006-0.013-0.011-0.019-0.018c-0.016-0.021-0.033-0.039-0.052-0.055c-0.016-0.02-0.035-0.036-0.056-0.052
		c-0.005-0.005-0.01-0.011-0.015-0.016c-0.017-0.02-0.032-0.042-0.053-0.057c-0.028-0.029-0.051-0.058-0.079-0.086
		c-0.037-0.037-0.083-0.06-0.13-0.075c-1.06-0.866-2.148-1.199-3.239-0.98c-2.784,0.556-4.794,4.507-5.745,6.812
		c-0.111,0.27-0.217,0.521-0.319,0.764l-4.3-4.302c-0.276-0.274-0.643-0.425-1.033-0.425s-0.757,0.151-1.033,0.426L13.297,9.24
		l-1.519-1.519c-0.267-0.267-0.622-0.414-1-0.414c-0.377,0-0.731,0.147-0.997,0.412c-0.541,0.542-0.556,1.404-0.025,1.97
		l1.546,1.546l-0.004,0.003c-0.569,0.569-0.569,1.495,0,2.065l4.981,4.981c-0.981,0.89-4.735,4.395-4.902,4.551
		c-0.036,0.032-0.885,0.789-0.913,1.679c-0.013,0.404,0.137,0.765,0.446,1.074c0.006,0.006,0.014,0.008,0.02,0.013
		c0.005,0.006,0.007,0.013,0.013,0.019c0.297,0.297,0.642,0.447,1.026,0.447c0.016,0,0.032,0,0.048-0.001
		c0.89-0.028,1.647-0.877,1.673-0.906c0.162-0.173,3.668-3.928,4.557-4.909l3.92,3.919c0.274,0.274,0.641,0.426,1.032,0.426
		c0.392,0,0.758-0.151,1.032-0.426l0.003-0.003l1.519,1.519c0.267,0.267,0.622,0.414,1,0.414c0.377,0,0.731-0.147,0.997-0.413
		c0.541-0.541,0.556-1.404,0.026-1.97l-1.547-1.546l0.003-0.003c0.567-0.569,0.567-1.496-0.001-2.066l-3.238-3.238
		c0.242-0.102,0.493-0.207,0.763-0.319c2.305-0.951,6.256-2.961,6.812-5.745c0.218-1.092-0.115-2.178-0.98-3.238
		C29.576,7.516,29.553,7.47,29.515,7.433z M29.1,8.796c0.22,2.938-4.154,5.349-6.165,6.458l-0.239,0.132
		c-0.253,0.14-0.503,0.285-0.751,0.43L21.9,15.772c0.332-0.26,0.642-0.5,0.898-0.692C22.859,15.035,27.725,11.283,29.1,8.796z
		 M28.809,7.723c0.004,0.01,0.009,0.019,0.014,0.029c-0.019,0.362-0.368,1.275-2.462,3.359c-1.54,1.533-3.323,2.991-3.945,3.457
		c-0.275,0.206-0.611,0.466-0.971,0.748l-0.229-0.228c0.282-0.36,0.542-0.696,0.748-0.971c1.772-2.364,5.541-6.383,6.809-6.411
		C28.785,7.712,28.797,7.718,28.809,7.723z M21.452,13.733C21.26,13.99,21.02,14.3,20.76,14.632l-0.044-0.043
		c0.145-0.248,0.289-0.499,0.43-0.752l0.133-0.241c1.109-2.011,3.523-6.387,6.462-6.163C25.257,8.808,21.498,13.673,21.452,13.733z
		 M20.577,13.019c0.726-1.761,2.694-5.912,5.279-6.428c0.538-0.107,1.08-0.045,1.624,0.18c-3.175,0.016-5.616,4.441-6.761,6.517
		l-0.132,0.24c-0.111,0.2-0.225,0.396-0.339,0.593l-0.093-0.093C20.287,13.713,20.428,13.381,20.577,13.019z M10.215,9.244
		c-0.286-0.305-0.278-0.777,0.018-1.073c0.145-0.145,0.339-0.225,0.544-0.225c0.207,0,0.402,0.081,0.548,0.227l1.519,1.519
		l-1.09,1.091L10.215,9.244z M13.216,24.732c-0.167,0.189-0.713,0.682-1.221,0.697c-0.217,0.008-0.418-0.078-0.599-0.259
		c-0.006-0.006-0.014-0.008-0.02-0.013c-0.005-0.006-0.007-0.013-0.012-0.019c-0.181-0.181-0.266-0.378-0.26-0.6
		c0.015-0.508,0.508-1.054,0.703-1.227c0.043-0.04,3.995-3.73,4.925-4.572l1.062,1.062C16.953,20.73,13.262,24.683,13.216,24.732z
		 M27.317,24.165c0.286,0.305,0.278,0.777-0.018,1.073c-0.291,0.292-0.8,0.29-1.092-0.001l-1.519-1.519l1.091-1.091L27.317,24.165z
		 M25.78,20.556c0.319,0.321,0.319,0.843,0.001,1.163l-0.229,0.229l-1.543,1.543l-0.229,0.229c-0.307,0.307-0.852,0.307-1.159,0
		L11.751,12.851c-0.32-0.32-0.32-0.84,0-1.16l0.226-0.226c0.002-0.001,0.004-0.002,0.005-0.003l1.543-1.543
		c0.001-0.001,0.002-0.003,0.003-0.004l0.225-0.225c0.155-0.154,0.362-0.239,0.581-0.239c0.22,0,0.427,0.085,0.581,0.238
		l4.635,4.636l1.785,1.787c0.043,0.043,0.077,0.077,0.096,0.095l0.233,0.233c0.146,0.148,0.34,0.343,0.54,0.54
		c0.054,0.056,0.11,0.111,0.165,0.166L25.78,20.556z M29.942,10.677c-0.516,2.585-4.667,4.553-6.428,5.279
		c-0.362,0.149-0.695,0.289-1.007,0.423c-0.032-0.031-0.064-0.063-0.094-0.093c0.197-0.114,0.393-0.229,0.593-0.34l0.238-0.131
		c2.077-1.145,6.504-3.587,6.519-6.762C29.988,9.597,30.049,10.14,29.942,10.677z"/>
	<path fill="#FFFFFF" d="M12.52,12.409c-0.125,0.125-0.125,0.327,0,0.452l9.989,9.989c0.062,0.062,0.144,0.094,0.226,0.094
		c0.082,0,0.164-0.031,0.226-0.094c0.125-0.125,0.125-0.327,0-0.452l-9.989-9.989C12.848,12.284,12.645,12.284,12.52,12.409z"/>
</g>
<text transform="matrix(1 0 0 1 4.0001 36.7999)" fill="#FFFFFF" font-family="'HelveticaNeue-Bold'" font-size="1.6">Created by CBi icons</text>
<text transform="matrix(1 0 0 1 4.0001 38.4001)" fill="#FFFFFF" font-family="'HelveticaNeue-Bold'" font-size="1.6">from the Noun Project</text>
</svg>
