<svg xmlns="http://www.w3.org/2000/svg" xmlns:xlink="http://www.w3.org/1999/xlink" version="1.1" x="0px" y="0px" viewBox="0 0 100 125" enable-background="new 0 0 100 100" xml:space="preserve"><path d="M68.6,32.8c-2.9,0.3-6.6,1.1-9.4,3.4c-0.8,0.6-1.4,1.4-2,2.1c0.1-0.4,0.1-0.6,0.1-0.6l-0.1,0c0.4-1.8,1.4-6.1,2.6-10.3  c0.8-2.8,1.5-5.5,2.2-7.5c0.6-2,1.1-3.3,1.1-3.3c0.5-1.6-0.5-3.3-2.2-3.8c-1.8-0.6-3.7,0.3-4.2,1.9c0,0-1.3,3.8-2.4,7.8  c-0.6,2-1.1,4-1.5,5.4c-0.4,1.5-0.6,2.5-0.6,2.5c-0.5-2.2-1.5-4.6-3.3-6.6c-2.4-2.7-5.9-4.3-8.7-5.1c-2.9-0.9-5.1-1-5.1-1  S34.6,20,34.8,23c0.3,3,1.2,6.6,3.7,9.3C42,36,47.4,37,50.4,37.4c0,0,0,0,0,0.1l-0.7,0c0,0-1.4,7-2.5,14c-1.1,7-2.1,14-2.1,14  c-0.1,0.5-0.1,0.9-0.2,1.5c-0.1-0.5-0.2-1-0.2-1.5c0,0-1.2-7-2.2-14.1c-1-7.1-1.8-14.4-1.8-14.4l-7.7-0.3c0,0,0.4,3,1,7.4  c0.6,4.4,1.6,10.2,2.6,15.9c2.1,11.2,4.2,22.4,4.2,22.4h8.4c0,0,5.1-29.9,5.7-33.3c2.4,0,9.1-0.4,13.5-4.1c2.7-2.3,4-5.4,4.6-7.9  c0.6-2.5,0.6-4.5,0.6-4.5S71.5,32.5,68.6,32.8z"/><text x="0" y="115" fill="#000000" font-size="5px" font-weight="bold" font-family="'Helvetica Neue', Helvetica, Arial-Unicode, Arial, Sans-serif">Created by Peter Chlebak</text><text x="0" y="120" fill="#000000" font-size="5px" font-weight="bold" font-family="'Helvetica Neue', Helvetica, Arial-Unicode, Arial, Sans-serif">from the Noun Project</text></svg>