<svg xmlns="http://www.w3.org/2000/svg" xmlns:xlink="http://www.w3.org/1999/xlink" version="1.1" x="0px" y="0px" viewBox="0 0 100 125" enable-background="new 0 0 100 100" xml:space="preserve"><text transform="matrix(1 0 0 1 129.5205 17.3042)" fill="#000000" font-family="'ArialMT'" font-size="21">Created By CBi China Bridge </text><text transform="matrix(1 0 0 1 129.5205 42.5044)" fill="#000000" font-family="'ArialMT'" font-size="21">from the Noun Project</text><text transform="matrix(1 0 0 1 18.8882 215.6016)" fill="#000000" font-family="'ArialMT'" font-size="12">Bake / cook</text><g><path fill="#000000" stroke="#231F20" stroke-width="2" stroke-linecap="round" stroke-linejoin="round" stroke-miterlimit="10" d="   M79.027,140.458c-12.586-12.585-23.014,3.915-28.149,16.368c-0.526,1.277-1.021,2.453-1.483,3.533"/><path fill="#000000" stroke="#231F20" stroke-width="2" stroke-linecap="round" stroke-linejoin="round" stroke-miterlimit="10" d="   M51.159,161.989c0.522-0.889,1.043-1.797,1.549-2.71c3.776-6.81,13.699-25.837,25.961-19.179"/><path fill="#000000" stroke="#231F20" stroke-width="2" stroke-linecap="round" stroke-linejoin="round" stroke-miterlimit="10" d="   M52.671,163.493c1.01-1.284,1.942-2.486,2.667-3.452c3.201-4.271,18.194-22.121,22.975-20.297"/><path fill="#000000" stroke="#231F20" stroke-width="2" stroke-linecap="round" stroke-linejoin="round" stroke-miterlimit="10" d="   M39.636,173.877c-1.465,1.261-15.921,14.76-15.921,14.76s-4.552,4.006-1.412,7.146"/><path fill="#000000" stroke="#231F20" stroke-width="2" stroke-linecap="round" stroke-linejoin="round" stroke-miterlimit="10" d="   M22.405,195.885c3.14,3.139,7.145-1.412,7.145-1.412s13.5-14.455,14.761-15.92"/><path fill="#000000" stroke="#231F20" stroke-width="2" stroke-linecap="round" stroke-linejoin="round" stroke-miterlimit="10" d="   M77.729,139.162c12.586,12.584-3.914,23.014-16.367,28.148c-1.27,0.523-2.438,1.016-3.515,1.477   c-0.082,0.035-0.164,0.07-0.244,0.104"/><path fill="#000000" stroke="#231F20" stroke-width="2" stroke-linecap="round" stroke-linejoin="round" stroke-miterlimit="10" d="   M56.144,167.062c0.907-0.534,1.834-1.066,2.765-1.582c6.811-3.775,25.838-13.699,19.179-25.961"/><path fill="#000000" stroke="#231F20" stroke-width="2" stroke-linecap="round" stroke-linejoin="round" stroke-miterlimit="10" d="   M54.636,165.564c1.307-1.029,2.53-1.979,3.511-2.715c4.272-3.199,22.121-18.193,20.298-22.974"/><g><path fill="#000000" stroke="#231F20" stroke-width="2" stroke-linecap="round" stroke-linejoin="round" stroke-miterlimit="10" d="    M68.771,185.102l-6.254,6.254c-1.382,1.383-3.654,1.383-5.037,0l-33.967-33.965c-1.383-1.385-1.383-3.656,0-5.039l6.254-6.254    c1.391-1.383,3.654-1.383,5.046,0l14.485,14.486l1.693,1.693l0.922,0.922c0.185,0.185,0.368,0.369,0.554,0.553    c0.738,0.738,1.441,1.451,1.962,1.971c0.343,0.335,0.604,0.604,0.745,0.737c0.135,0.134,0.394,0.394,0.737,0.737    c0.453,0.461,1.057,1.064,1.693,1.693c0.269,0.277,0.555,0.553,0.83,0.83l10.336,10.336    C70.154,181.447,70.154,183.711,68.771,185.102z"/></g><path fill="#000000" stroke="#231F20" stroke-width="2" stroke-linecap="round" stroke-linejoin="round" stroke-miterlimit="10" d="   M68.056,185.816l5.54,5.539c1.252,1.338,1.229,3.434-0.08,4.742c-1.332,1.332-3.494,1.328-4.827-0.004l-5.455-5.455L68.056,185.816   z"/><path fill="#000000" stroke="#231F20" stroke-width="2" stroke-linecap="round" stroke-linejoin="round" stroke-miterlimit="10" d="   M24.232,151.637l-5.541-5.54c-1.252-1.337-1.229-3.434,0.079-4.743c1.332-1.332,3.495-1.327,4.827,0.006l5.456,5.455   L24.232,151.637z"/><line fill="#000000" stroke="#231F20" stroke-width="2" stroke-linecap="round" stroke-linejoin="round" stroke-miterlimit="10" x1="27.333" y1="156.01" x2="58.55" y2="187.227"/></g><g><path fill="#000000" d="M79.734,23.227c-0.09-0.09-0.181-0.161-0.27-0.249c-0.047-0.062-0.111-0.107-0.172-0.158   c-0.02-0.019-0.04-0.035-0.06-0.055c-0.049-0.065-0.102-0.122-0.163-0.173c-0.051-0.062-0.109-0.114-0.175-0.163   c-0.017-0.017-0.03-0.033-0.046-0.051c-0.053-0.063-0.101-0.13-0.165-0.178c-0.087-0.09-0.158-0.18-0.248-0.27   c-0.117-0.117-0.259-0.188-0.406-0.234c-3.313-2.705-6.712-3.746-10.123-3.062c-8.699,1.737-14.982,14.083-17.954,21.287   c-0.348,0.845-0.677,1.629-0.996,2.386L35.518,28.864c-0.861-0.856-2.008-1.328-3.229-1.328s-2.366,0.472-3.229,1.33l-0.008,0.008   l-4.747-4.746c-0.834-0.835-1.945-1.295-3.126-1.295c-1.177,0-2.284,0.458-3.116,1.289c-1.691,1.693-1.736,4.388-0.078,6.157   l4.832,4.831l-0.011,0.01c-1.778,1.778-1.778,4.673,0,6.453L38.373,57.14c-3.065,2.781-14.797,13.734-15.318,14.222   c-0.113,0.1-2.766,2.465-2.854,5.247C20.16,77.87,20.629,79,21.596,79.966c0.019,0.019,0.043,0.025,0.062,0.042   c0.017,0.019,0.022,0.042,0.04,0.06c0.928,0.928,2.006,1.397,3.207,1.397c0.05,0,0.099-0.001,0.149-0.003   c2.782-0.089,5.146-2.74,5.227-2.831c0.506-0.542,11.463-12.275,14.242-15.341l12.249,12.248c0.857,0.857,2.003,1.33,3.226,1.33   c1.224,0,2.369-0.473,3.226-1.33l0.01-0.01l4.748,4.748c0.835,0.835,1.944,1.294,3.125,1.294c1.178,0,2.284-0.458,3.116-1.29   c1.692-1.692,1.737-4.386,0.08-6.156l-4.833-4.832l0.01-0.01c1.771-1.779,1.771-4.676-0.002-6.457L59.36,52.707   c0.757-0.319,1.54-0.648,2.383-0.996c7.204-2.971,19.549-9.253,21.287-17.954c0.682-3.412-0.358-6.807-3.061-10.118   C79.924,23.489,79.854,23.345,79.734,23.227z M78.436,27.487c0.687,9.181-12.98,16.716-19.266,20.182l-0.746,0.412   c-0.79,0.438-1.572,0.891-2.348,1.344l-0.137-0.137c1.039-0.814,2.006-1.562,2.807-2.162C58.935,46.984,74.14,35.259,78.436,27.487   z M77.527,24.135c0.014,0.03,0.029,0.06,0.043,0.09c-0.059,1.132-1.149,3.984-7.694,10.498   c-4.813,4.791-10.385,9.347-12.329,10.803c-0.859,0.645-1.909,1.457-3.033,2.339l-0.715-0.714c0.881-1.124,1.694-2.174,2.339-3.034   c5.536-7.386,17.315-19.947,21.278-20.034C77.453,24.099,77.49,24.118,77.527,24.135z M54.538,42.916   c-0.601,0.802-1.35,1.771-2.163,2.81l-0.136-0.135c0.452-0.775,0.904-1.559,1.344-2.351l0.415-0.753   c3.467-6.285,11.01-19.958,20.194-19.258C66.429,27.524,54.68,42.728,54.538,42.916z M51.803,40.683   c2.269-5.502,8.419-18.475,16.496-20.088c1.68-0.333,3.375-0.142,5.076,0.561c-9.923,0.05-17.549,13.877-21.128,20.366   l-0.414,0.749c-0.346,0.624-0.703,1.238-1.06,1.854l-0.292-0.292C50.898,42.854,51.336,41.815,51.803,40.683z M19.422,28.889   c-0.895-0.954-0.869-2.427,0.056-3.353c0.454-0.454,1.058-0.703,1.701-0.703c0.647,0,1.255,0.252,1.712,0.709l4.747,4.746   l-3.407,3.408L19.422,28.889z M28.801,77.286c-0.523,0.59-2.228,2.13-3.815,2.177c-0.678,0.026-1.307-0.244-1.873-0.81   c-0.019-0.019-0.043-0.025-0.063-0.042c-0.016-0.019-0.021-0.042-0.039-0.06c-0.566-0.566-0.831-1.18-0.811-1.874   c0.048-1.589,1.588-3.293,2.198-3.835c0.134-0.125,12.483-11.655,15.392-14.287l3.319,3.318   C40.478,64.781,28.943,77.133,28.801,77.286z M72.865,75.515c0.894,0.954,0.868,2.427-0.057,3.352   c-0.909,0.911-2.501,0.907-3.413-0.004l-4.748-4.748l3.408-3.408L72.865,75.515z M68.062,64.237   c0.997,1.002,0.997,2.633,0.002,3.633l-0.715,0.715l-4.822,4.822l-0.717,0.717c-0.959,0.959-2.662,0.959-3.623,0L24.221,40.159   c-1-1-1-2.626-0.001-3.625l0.705-0.705c0.005-0.004,0.011-0.006,0.015-0.01l4.821-4.822c0.003-0.004,0.005-0.008,0.008-0.012   l0.703-0.703c0.483-0.481,1.13-0.746,1.817-0.746c0.688,0,1.334,0.265,1.816,0.744l14.485,14.486l5.579,5.583   c0.134,0.134,0.241,0.241,0.3,0.296l0.729,0.729c0.456,0.464,1.062,1.071,1.688,1.688c0.168,0.174,0.343,0.346,0.517,0.519   L68.062,64.237z M81.068,33.365c-1.613,8.079-14.585,14.228-20.087,16.496c-1.132,0.467-2.171,0.904-3.148,1.321   c-0.099-0.098-0.199-0.197-0.294-0.291c0.616-0.356,1.229-0.715,1.854-1.061l0.743-0.41c6.491-3.579,20.325-11.208,20.373-21.131   C81.212,29.99,81.403,31.687,81.068,33.365z"/><path fill="#000000" d="M26.626,38.778c-0.391,0.391-0.391,1.023,0,1.414l31.217,31.217c0.195,0.195,0.451,0.293,0.707,0.293   s0.512-0.098,0.707-0.293c0.391-0.391,0.391-1.023,0-1.414L28.04,38.778C27.649,38.388,27.017,38.388,26.626,38.778z"/></g><text x="0" y="115" fill="#000000" font-size="5px" font-weight="bold" font-family="'Helvetica Neue', Helvetica, Arial-Unicode, Arial, Sans-serif">Created by CBi icons</text><text x="0" y="120" fill="#000000" font-size="5px" font-weight="bold" font-family="'Helvetica Neue', Helvetica, Arial-Unicode, Arial, Sans-serif">from the Noun Project</text></svg>