<svg xmlns="http://www.w3.org/2000/svg" xmlns:xlink="http://www.w3.org/1999/xlink" version="1.1" x="0px" y="0px" viewBox="0 0 48 60" enable-background="new 0 0 48 48" xml:space="preserve"><g><path fill="#000000" d="M17.2,40.6c-0.3,0-0.5-0.1-0.7-0.3l-9-8.8c-0.2-0.2-0.3-0.4-0.3-0.7c0-0.3,0.1-0.5,0.3-0.7L30.1,7.7   c0.4-0.4,1-0.4,1.4,0l9,8.8c0.2,0.2,0.3,0.4,0.3,0.7c0,0.3-0.1,0.5-0.3,0.7L17.9,40.3C17.7,40.5,17.5,40.6,17.2,40.6z M9.7,30.9   l7.5,7.4l21.1-21.1l-7.5-7.4L9.7,30.9z"/><g><path fill="#000000" d="M38.7,17.1c-0.3,0-0.5-0.1-0.7-0.3c-0.4-0.4-0.4-1,0-1.4l1.6-1.6c0.4-0.4,0.6-0.9,0.6-1.4    c0-0.5-0.2-1-0.6-1.4L37,8.4c-0.8-0.8-2.1-0.8-2.9,0l-1.3,1.3c-0.4,0.4-1,0.4-1.4,0c-0.4-0.4-0.4-1,0-1.4L32.7,7    c1.6-1.6,4.1-1.6,5.7,0L41,9.5c0.8,0.8,1.2,1.8,1.2,2.8c0,1.1-0.4,2.1-1.2,2.8l-1.6,1.6C39.2,17,39,17.1,38.7,17.1z"/><path fill="#000000" d="M39,10c-0.3,0-0.5-0.1-0.7-0.3c-0.4-0.4-0.4-1,0-1.4l7.5-7.5c0.4-0.4,1-0.4,1.4,0c0.4,0.4,0.4,1,0,1.4    l-7.5,7.5C39.5,9.9,39.3,10,39,10z"/></g><g><path fill="#000000" d="M12.4,42.1c-1,0-2.1-0.4-2.8-1.2L7,38.5c-0.8-0.8-1.2-1.8-1.2-2.8c0-1.1,0.4-2.1,1.2-2.8l1.3-1.3    c0.4-0.4,1-0.4,1.4,0s0.4,1,0,1.4l-1.3,1.3c-0.4,0.4-0.6,0.9-0.6,1.4c0,0.5,0.2,1,0.6,1.4l2.6,2.5c0.8,0.8,2.1,0.8,2.9,0l1.6-1.6    c0.4-0.4,1-0.4,1.4,0c0.4,0.4,0.4,1,0,1.4L15.3,41C14.5,41.8,13.4,42.1,12.4,42.1z"/><path fill="#000000" d="M1.5,47.5c-0.3,0-0.5-0.1-0.7-0.3c-0.4-0.4-0.4-1,0-1.4l7.5-7.5c0.4-0.4,1-0.4,1.4,0c0.4,0.4,0.4,1,0,1.4    l-7.5,7.5C2,47.4,1.8,47.5,1.5,47.5z"/></g><path fill="#000000" d="M31.6,20.6c-0.5,0-0.9-0.3-1-0.8l-1.1-5.3c-0.1-0.5,0.2-1.1,0.8-1.2c0.5-0.1,1.1,0.2,1.2,0.8l1.1,5.3   c0.1,0.5-0.2,1.1-0.8,1.2C31.7,20.6,31.6,20.6,31.6,20.6z"/><path fill="#000000" d="M26.9,25.3c-0.5,0-0.9-0.3-1-0.8l-1.1-5.3c-0.1-0.5,0.2-1.1,0.8-1.2c0.5-0.1,1.1,0.2,1.2,0.8l1.1,5.3   c0.1,0.5-0.2,1.1-0.8,1.2C27,25.3,26.9,25.3,26.9,25.3z"/><path fill="#000000" d="M22.2,30c-0.5,0-0.9-0.3-1-0.8l-1.1-5.3c-0.1-0.5,0.2-1.1,0.8-1.2c0.5-0.1,1.1,0.2,1.2,0.8l1.1,5.3   c0.1,0.5-0.2,1.1-0.8,1.2C22.3,30,22.2,30,22.2,30z"/><path fill="#000000" d="M17.5,34.7c-0.5,0-0.9-0.3-1-0.8l-1.1-5.3c-0.1-0.5,0.2-1.1,0.8-1.2c0.5-0.1,1.1,0.2,1.2,0.8l1.1,5.3   c0.1,0.5-0.2,1.1-0.8,1.2C17.6,34.7,17.5,34.7,17.5,34.7z"/><path fill="#000000" d="M25.4,40.8c-2.3,0-4.7-0.7-6.8-2c-0.5-0.3-0.6-0.9-0.3-1.4c0.3-0.5,0.9-0.6,1.4-0.3   c2.6,1.6,5.4,2.1,8.1,1.4c2.6-0.6,4.8-2.3,6.3-4.9c2.1-3.5,2.6-8,1.5-12.4c-0.1-0.5,0.2-1.1,0.7-1.2c0.5-0.1,1.1,0.2,1.2,0.7   c1.3,5,0.6,10-1.7,14c-1.8,3-4.5,5-7.6,5.8C27.3,40.6,26.3,40.8,25.4,40.8z"/><path fill="#000000" d="M11.5,28.1c-0.4,0-0.9-0.3-1-0.8c-1.3-5-0.6-10,1.7-14c1.8-3,4.5-5,7.6-5.8c3.1-0.8,6.6-0.2,9.6,1.7   c0.5,0.3,0.6,0.9,0.3,1.4c-0.3,0.5-0.9,0.6-1.4,0.3c-2.6-1.6-5.4-2.1-8.1-1.4c-2.6,0.6-4.8,2.3-6.3,4.9c-2.1,3.5-2.6,8-1.5,12.4   c0.1,0.5-0.2,1.1-0.7,1.2C11.7,28.1,11.6,28.1,11.5,28.1z"/></g><text x="0" y="63" fill="#000000" font-size="5px" font-weight="bold" font-family="'Helvetica Neue', Helvetica, Arial-Unicode, Arial, Sans-serif">Created by Creative Stall</text><text x="0" y="68" fill="#000000" font-size="5px" font-weight="bold" font-family="'Helvetica Neue', Helvetica, Arial-Unicode, Arial, Sans-serif">from the Noun Project</text></svg>