<?xml version="1.0" encoding="utf-8"?>
<!-- Generator: Adobe Illustrator 17.0.0, SVG Export Plug-In . SVG Version: 6.00 Build 0)  -->
<!DOCTYPE svg PUBLIC "-//W3C//DTD SVG 1.1//EN" "http://www.w3.org/Graphics/SVG/1.1/DTD/svg11.dtd">
<svg version="1.1" id="Layer_1" xmlns="http://www.w3.org/2000/svg" xmlns:xlink="http://www.w3.org/1999/xlink" x="0px" y="0px"
	 width="14.557px" height="22.332px" viewBox="13.776 4.036 14.557 22.332" enable-background="new 13.776 4.036 14.557 22.332"
	 xml:space="preserve">
<path d="M25.952,10.496c-0.928,0.096-2.112,0.352-3.008,1.088c-0.256,0.192-0.448,0.448-0.64,0.672
	c0.032-0.128,0.032-0.192,0.032-0.192h-0.032c0.128-0.576,0.448-1.952,0.832-3.296c0.256-0.896,0.48-1.76,0.704-2.4
	c0.192-0.64,0.352-1.056,0.352-1.056c0.16-0.512-0.16-1.056-0.704-1.216c-0.576-0.192-1.184,0.096-1.344,0.608
	c0,0-0.416,1.216-0.768,2.496c-0.192,0.64-0.352,1.28-0.48,1.728c-0.128,0.48-0.192,0.8-0.192,0.8
	c-0.16-0.704-0.48-1.472-1.056-2.112C18.88,6.752,17.76,6.24,16.864,5.984c-0.928-0.288-1.632-0.32-1.632-0.32
	S15.072,6.4,15.136,7.36c0.096,0.96,0.384,2.112,1.184,2.976c1.12,1.184,2.848,1.504,3.808,1.632c0,0,0,0,0,0.032h-0.224
	c0,0-0.448,2.24-0.8,4.48s-0.672,4.48-0.672,4.48c-0.032,0.16-0.032,0.288-0.064,0.48c-0.032-0.16-0.064-0.32-0.064-0.48
	c0,0-0.384-2.24-0.704-4.512c-0.32-2.272-0.576-4.608-0.576-4.608l-2.464-0.096c0,0,0.128,0.96,0.32,2.368
	c0.192,1.408,0.512,3.264,0.832,5.088c0.672,3.584,1.344,7.168,1.344,7.168h2.688c0,0,1.632-9.568,1.824-10.656
	c0.768,0,2.912-0.128,4.32-1.312c0.864-0.736,1.28-1.728,1.472-2.528c0.192-0.8,0.192-1.44,0.192-1.44S26.88,10.4,25.952,10.496z"/>
<text transform="matrix(1 0 0 1 4.0001 36.7999)" font-family="'HelveticaNeue-Bold'" font-size="1.6">Created by Peter Chlebak</text>
<text transform="matrix(1 0 0 1 4.0001 38.4001)" font-family="'HelveticaNeue-Bold'" font-size="1.6">from the Noun Project</text>
</svg>
